<svg width="88" height="88" viewBox="0 0 88 88" fill="none" xmlns="http://www.w3.org/2000/svg">
<path fill-rule="evenodd" clip-rule="evenodd" d="M15.9952 20.0938L21.0923 77.265L43.9656 83.6148L66.9022 77.2559L72.005 20.0938H15.9952Z" fill="#E44D26"/>
<path fill-rule="evenodd" clip-rule="evenodd" d="M44 31.7802H26.4175L26.5855 33.6614L28.3088 52.9839H44V45.9723H34.7215L34.0806 38.7922H44V31.7802ZM36.1601 62.0823L35.6608 56.4902H28.622L29.6044 67.4998L43.9677 71.4869L44 71.478V64.1828L43.9692 64.191L36.1601 62.0823Z" fill="#EBEBEB"/>
<path fill-rule="evenodd" clip-rule="evenodd" d="M44 24.7682V78.7545L62.5336 73.6163L66.8943 24.7682H44Z" fill="#F16529"/>
<path fill-rule="evenodd" clip-rule="evenodd" d="M43.9756 52.9841H52.6099L51.7959 62.078L43.9756 64.1888V71.4835L58.3502 67.4996L58.4557 66.3151L60.1035 47.8552L60.2745 45.9723H43.9756V52.9841ZM43.9756 31.7802V38.7922H60.9125L61.0531 37.2161L61.3726 33.6614L61.5402 31.7802H43.9756V31.7802Z" fill="white"/>
<path fill-rule="evenodd" clip-rule="evenodd" d="M28.0292 8.07758H24.7696V4.55707H21.2065V15.2181H24.7698V11.6481H28.0292V15.2181H31.5925V4.55707H28.029V8.07758H28.0292ZM33.1416 8.09236H36.2787V15.2181H39.8422V8.09236H42.9806V4.55707H33.1416V8.09236ZM50.5433 8.30308L48.2575 4.55707H44.5421V15.2181H48.0286V9.93383L50.4818 13.7245H50.5431L52.9946 9.93383V15.2181H56.5431V4.55707H52.8261L50.5433 8.30308ZM61.8812 11.6942V4.55707H58.3168V15.2181H66.8924V11.6942H61.8812Z" fill="black"/>
</svg>
