<svg width="114" height="114" viewBox="0 0 114 114" fill="none" xmlns="http://www.w3.org/2000/svg">
<path d="M57 12.4688C32.4187 12.4688 12.4688 32.4187 12.4688 57C12.4688 81.5813 32.4187 101.531 57 101.531C81.5813 101.531 101.531 81.5813 101.531 57C101.531 32.4187 81.5813 12.4688 57 12.4688Z" fill="#46483E"/>
<path d="M57 85.4109C56.1984 85.4109 55.4859 85.2328 54.7734 84.7875L47.8266 80.6906C46.7578 80.0672 47.2922 79.8891 47.6484 79.8C49.0734 79.2656 49.3406 79.1766 50.7656 78.375C50.9437 78.2859 51.1219 78.2859 51.3 78.4641L56.6437 81.6703C56.8219 81.7594 57.0891 81.7594 57.2672 81.6703L78.1078 69.6469C78.2859 69.5578 78.4641 69.2906 78.4641 69.1125V45.0656C78.4641 44.7984 78.375 44.6203 78.1078 44.5313L57.3562 32.4188C57.1781 32.3297 56.9109 32.3297 56.7328 32.4188L35.8922 44.3531C35.7141 44.4422 35.5359 44.7094 35.5359 44.8875V68.9344C35.5359 69.1125 35.625 69.3797 35.8922 69.4688L41.5922 72.7641C44.7094 74.2781 46.5797 72.4969 46.5797 70.6266V47.025C46.5797 46.6688 46.8469 46.4016 47.2031 46.4016H49.875C50.2312 46.4016 50.4984 46.6688 50.4984 47.025V70.7156C50.4984 74.9016 48.2719 77.2172 44.3531 77.2172C43.1062 77.2172 42.2156 77.2172 39.5437 75.8812L34.1109 72.7641C32.775 71.9625 31.8844 70.5375 31.8844 68.9344V44.8875C31.8844 43.3734 32.6859 41.8594 34.1109 41.0578L54.9516 29.0344C56.2875 28.3219 58.0687 28.3219 59.3156 29.0344L80.1562 41.0578C81.4922 41.8594 82.3828 43.2844 82.3828 44.8875V68.9344C82.3828 70.4484 81.5812 71.9625 80.1562 72.7641L59.2266 84.8766C58.5141 85.2328 57.8016 85.4109 57 85.4109Z" fill="#81CF08"/>
<path d="M63.5015 68.8453C54.4172 68.8453 52.4578 64.6594 52.4578 61.1859C52.4578 60.8297 52.725 60.5625 53.0812 60.5625H55.7531C56.0203 60.5625 56.2875 60.7406 56.3765 61.0969C56.7328 63.8578 57.9797 65.1938 63.5015 65.1938C67.8656 65.1938 69.7359 64.2141 69.7359 61.8984C69.7359 60.5625 69.2015 59.5828 62.3437 58.8703C56.6437 58.3359 53.0812 57.0891 53.0812 52.4578C53.0812 48.2719 56.6437 45.7781 62.6109 45.7781C69.2906 45.7781 72.5859 48.0938 73.0312 53.0813C73.0312 53.2594 72.9422 53.4375 72.8531 53.5266C72.764 53.6156 72.5859 53.7047 72.4078 53.7047H69.7359C69.4687 53.7047 69.2015 53.5266 69.1125 53.2594C68.489 50.4094 66.8859 49.4297 62.6109 49.4297C57.8015 49.4297 57.2672 51.1219 57.2672 52.3688C57.2672 53.8828 57.8906 54.3281 64.3922 55.2188C70.8047 56.0203 73.8328 57.2672 73.8328 61.7203C73.8328 66.2625 70.0922 68.8453 63.5015 68.8453Z" fill="#81CF08"/>
</svg>
