<svg width="84" height="84" viewBox="0 0 84 84" fill="none" xmlns="http://www.w3.org/2000/svg">
<path d="M42 84C65.196 84 84 65.196 84 42C84 18.804 65.196 0 42 0C18.804 0 0 18.804 0 42C0 65.196 18.804 84 42 84Z" fill="#22A6DC"/>
<path d="M49.887 41.9999C49.887 43.5598 49.4244 45.0846 48.5578 46.3816C47.6912 47.6786 46.4594 48.6895 45.0182 49.2865C43.5771 49.8834 41.9912 50.0396 40.4613 49.7353C38.9314 49.431 37.5261 48.6798 36.423 47.5768C35.32 46.4738 34.5689 45.0685 34.2645 43.5385C33.9602 42.0086 34.1164 40.4228 34.7133 38.9816C35.3103 37.5405 36.3212 36.3087 37.6182 35.4421C38.9152 34.5754 40.4401 34.1129 42 34.1129C44.091 34.1152 46.0957 34.947 47.5743 36.4255C49.0529 37.9041 49.8846 39.9088 49.887 41.9999ZM42 15.7769C37.8944 15.7761 33.846 16.7393 30.1807 18.589C26.5154 20.4387 23.3356 23.1232 20.8973 26.4263C18.4591 29.7295 16.8305 33.559 16.1426 37.6065C15.4548 41.6541 15.7269 45.8066 16.9372 49.7298C18.1474 53.6529 20.2619 57.2371 23.1104 60.1938C25.9589 63.1504 29.4619 65.3969 33.3372 66.7524C37.2126 68.1079 41.3521 68.5345 45.4225 67.9979C49.4928 67.4613 53.3803 65.9764 56.772 63.6629L56.847 63.6089L53.313 59.5019L53.256 59.5409C49.1897 62.1542 44.3426 63.2759 39.5416 62.7144C34.7407 62.1529 30.2832 59.9431 26.9297 56.462C23.5761 52.9809 21.5342 48.444 21.1523 43.6255C20.7704 38.8069 22.0721 34.0051 24.8354 30.0391C27.5987 26.0732 31.6524 23.1888 36.305 21.8781C40.9576 20.5673 45.9209 20.9114 50.3481 22.8516C54.7753 24.7918 58.3922 28.2079 60.5818 32.5172C62.7715 36.8265 63.3982 41.7621 62.355 46.4819C62.2367 47.4445 61.7639 48.3286 61.029 48.9615C60.294 49.5944 59.3496 49.9307 58.38 49.9049C57.9357 49.8746 57.502 49.7562 57.1039 49.5567C56.7058 49.3571 56.3514 49.0804 56.0613 48.7426C55.7712 48.4048 55.5513 48.0126 55.4142 47.5889C55.2772 47.1653 55.2257 46.7186 55.263 46.2749V41.9999C55.2669 38.9249 54.2038 35.9439 52.2549 33.5654C50.3061 31.1869 47.5923 29.5584 44.5766 28.9577C41.5609 28.3569 38.4302 28.8213 35.7187 30.2714C33.0072 31.7215 30.8828 34.0676 29.7082 36.9094C28.5336 39.7511 28.3814 42.9124 29.2777 45.8538C30.1739 48.7952 32.0631 51.3345 34.6228 53.0384C37.1825 54.7423 40.2541 55.5051 43.3136 55.1968C46.373 54.8885 49.2307 53.5282 51.399 51.3479C52.1121 52.4624 53.0754 53.3953 54.2123 54.0723C55.3492 54.7493 56.6283 55.1518 57.948 55.2479C58.182 55.2689 58.419 55.2779 58.656 55.2779C60.5785 55.2727 62.447 54.6407 63.978 53.4779C65.6027 52.2091 66.7892 50.4634 67.371 48.4859C67.473 48.1529 67.671 47.3849 67.671 47.3819V47.3519C68.0616 45.5953 68.2469 43.7992 68.223 41.9999C68.215 35.0475 65.4497 28.3822 60.5337 23.4662C55.6176 18.5501 48.9523 15.7848 42 15.7769Z" fill="#FF9E00"/>
</svg>
