<svg width="81" height="81" viewBox="0 0 81 81" fill="none" xmlns="http://www.w3.org/2000/svg">
<rect width="80.4238" height="80.4238" rx="40.2119" fill="white"/>
<path d="M40.2119 73.5126C58.6032 73.5126 73.5124 58.6035 73.5124 40.2121C73.5124 21.8208 58.6032 6.91162 40.2119 6.91162C21.8205 6.91162 6.91138 21.8208 6.91138 40.2121C6.91138 58.6035 21.8205 73.5126 40.2119 73.5126Z" fill="url(#paint0_linear_104_404)"/>
<path d="M56.4199 26.0723L50.4752 56.0558C50.4752 56.0558 49.6427 58.137 47.3533 57.1354L33.6299 46.6119L28.6348 44.2055L20.2316 41.3827C20.2316 41.3827 18.9438 40.9274 18.8137 39.9258C18.6837 38.9242 20.2706 38.3909 20.2706 38.3909L53.6752 25.2918C53.6752 25.2788 56.4199 24.0691 56.4199 26.0723Z" fill="white"/>
<path d="M32.5632 55.7177C32.5632 55.7177 32.1599 55.6787 31.6656 54.1047C31.1713 52.5308 28.6348 44.2056 28.6348 44.2056L48.8102 31.3928C48.8102 31.3928 49.9809 30.6903 49.9289 31.3928C49.9289 31.3928 50.137 31.5228 49.5126 32.0952C48.8882 32.6806 33.6689 46.365 33.6689 46.365" fill="#D2E4F0"/>
<path d="M38.8851 50.644L33.4607 55.6001C33.4607 55.6001 33.0315 55.9253 32.5762 55.7172L33.6168 46.5205" fill="#B5CFE4"/>
<defs>
<linearGradient id="paint0_linear_104_404" x1="40.2119" y1="6.91162" x2="40.2119" y2="73.2697" gradientUnits="userSpaceOnUse">
<stop stop-color="#41BCE7"/>
<stop offset="1" stop-color="#22A6DC"/>
</linearGradient>
</defs>
</svg>
